<?xml version="1.0" standalone="no"?>
<!DOCTYPE svg PUBLIC "-//W3C//DTD SVG 20010904//EN"
 "http://www.w3.org/TR/2001/REC-SVG-20010904/DTD/svg10.dtd">
<svg version="1.0" xmlns="http://www.w3.org/2000/svg"
 width="179.000000pt" height="135.000000pt" viewBox="0 0 179.000000 135.000000"
 preserveAspectRatio="xMidYMid meet">

<g transform="translate(0.000000,135.000000) scale(0.100000,-0.100000)"
fill="#000000" stroke="none">
<path d="M0 675 l0 -675 895 0 895 0 0 675 0 675 -895 0 -895 0 0 -675z m760
584 c132 -21 247 -74 344 -159 l36 -32 -28 -41 c-16 -23 -52 -81 -81 -129 -57
-95 -81 -118 -123 -118 -44 0 -79 41 -222 265 -126 196 -134 210 -113 217 35
10 116 9 187 -3z m-104 -323 c132 -144 144 -160 144 -210 0 -40 0 -40 -19 -19
-20 21 -32 23 -421 63 -107 11 -208 22 -223 25 -33 6 -44 -16 -57 -110 l-7
-60 -1 50 c-4 208 95 392 269 496 l62 38 72 -77 c39 -42 121 -130 181 -196z
m571 -23 c34 -79 63 -197 62 -252 -1 -30 -3 -36 -6 -19 -5 32 -10 34 -138 47
-73 8 -93 7 -106 -5 -35 -31 -40 32 -7 79 32 45 161 207 165 207 2 0 16 -26
30 -57z m-381 -346 c21 -18 28 -34 31 -78 l5 -54 -18 25 c-24 34 -34 40 -67
40 -16 0 -143 -57 -296 -134 l-269 -134 -31 32 -32 33 193 93 c106 51 234 110
283 132 50 21 101 45 115 53 35 20 55 18 86 -8z m-436 -439 c0 -4 6 -5 13 -2
8 3 14 -2 14 -10 0 -13 -4 -13 -31 1 -41 20 -42 22 -17 20 11 -1 21 -5 21 -9z
m180 -28 c0 -6 33 -10 80 -10 50 0 80 -4 80 -11 0 -5 5 -7 10 -4 6 3 10 1 10
-4 0 -6 -9 -11 -21 -11 -11 0 -18 4 -15 9 3 5 -25 8 -62 7 -75 -1 -126 10
-117 24 8 13 35 13 35 0z m180 0 c0 -5 -2 -10 -4 -10 -3 0 -8 5 -11 10 -3 6
-1 10 4 10 6 0 11 -4 11 -10z m-280 -10 c8 -5 11 -10 5 -10 -5 0 -17 5 -25 10
-8 5 -10 10 -5 10 6 0 17 -5 25 -10z m51 -18 c-7 -2 -18 1 -23 6 -8 8 -4 9 13
5 13 -4 18 -8 10 -11z m266 2 c-3 -3 -12 -4 -19 -1 -8 3 -5 6 6 6 11 1 17 -2
13 -5z m-220 -10 c-3 -3 -12 -4 -19 -1 -8 3 -5 6 6 6 11 1 17 -2 13 -5z"/>
</g>
</svg>
